<svg width="18" height="19" viewBox="0 0 18 19" fill="none" xmlns="http://www.w3.org/2000/svg">
<path d="M17.7188 0.682025C17.9398 0.84274 18.0302 1.05703 17.99 1.32488L15.4185 16.7535C15.3851 16.9477 15.2779 17.0983 15.0971 17.2055C15.0034 17.259 14.8996 17.2858 14.7857 17.2858C14.7121 17.2858 14.6317 17.2691 14.5447 17.2356L9.99444 15.3773L7.56363 18.3405C7.4431 18.4945 7.27904 18.5715 7.07145 18.5715C6.98439 18.5715 6.91073 18.5581 6.85046 18.5314C6.72323 18.4845 6.61944 18.4041 6.53908 18.2903C6.46542 18.1831 6.42859 18.0626 6.42859 17.9287V14.4231L15.1072 3.78582L4.36944 13.0771L0.401803 11.4499C0.154035 11.3561 0.0201067 11.172 1.74387e-05 10.8974C-0.0133754 10.6296 0.0937674 10.432 0.321446 10.3048L17.0357 0.661935C17.1362 0.601667 17.2433 0.571533 17.3572 0.571533C17.4911 0.571533 17.6116 0.608364 17.7188 0.682025Z" fill="white"/>
</svg>
